<svg id="visual" viewBox="0 0 900 600" width="900" height="600" xmlns="http://www.w3.org/2000/svg" xmlns:xlink="http://www.w3.org/1999/xlink" version="1.1"><g transform="translate(435.6757593379144 277.10397810594685)"><path d="M169.7 -183.4C218.9 -160.9 257.2 -106.5 255.2 -54.4C253.3 -2.2 211.1 47.6 178.6 102.5C146.2 157.4 123.6 217.3 82.6 236.3C41.6 255.3 -17.7 233.4 -69.6 207.4C-121.5 181.5 -165.9 151.5 -194 109C-222 66.6 -233.6 11.7 -222.4 -37C-211.3 -85.8 -177.3 -128.3 -136.4 -152.3C-95.6 -176.4 -47.8 -181.9 6.2 -189.4C60.2 -196.8 120.4 -206 169.7 -183.4" fill="#595959"></path></g></svg>